<svg width="15" height="16" viewBox="0 0 15 16" fill="none" xmlns="http://www.w3.org/2000/svg">
<path d="M12.4473 3.72998H10.1035V3.26123C10.1035 2.88827 9.95536 2.53058 9.69163 2.26686C9.42791 2.00314 9.07023 1.85498 8.69727 1.85498H5.88477C5.5118 1.85498 5.15412 2.00314 4.8904 2.26686C4.62667 2.53058 4.47852 2.88827 4.47852 3.26123V3.72998H2.13477C2.01045 3.72998 1.89122 3.77937 1.80331 3.86727C1.7154 3.95518 1.66602 4.07441 1.66602 4.19873C1.66602 4.32305 1.7154 4.44228 1.80331 4.53019C1.89122 4.61809 2.01045 4.66748 2.13477 4.66748H2.60352V13.105C2.60352 13.3536 2.70229 13.5921 2.8781 13.7679C3.05392 13.9437 3.29238 14.0425 3.54102 14.0425H11.041C11.2897 14.0425 11.5281 13.9437 11.7039 13.7679C11.8797 13.5921 11.9785 13.3536 11.9785 13.105V4.66748H12.4473C12.5716 4.66748 12.6908 4.61809 12.7787 4.53019C12.8666 4.44228 12.916 4.32305 12.916 4.19873C12.916 4.07441 12.8666 3.95518 12.7787 3.86727C12.6908 3.77937 12.5716 3.72998 12.4473 3.72998ZM5.41602 3.26123C5.41602 3.13691 5.4654 3.01768 5.55331 2.92977C5.64122 2.84187 5.76045 2.79248 5.88477 2.79248H8.69727C8.82159 2.79248 8.94081 2.84187 9.02872 2.92977C9.11663 3.01768 9.16602 3.13691 9.16602 3.26123V3.72998H5.41602V3.26123ZM11.041 13.105H3.54102V4.66748H11.041V13.105ZM6.35352 7.01123V10.7612C6.35352 10.8856 6.30413 11.0048 6.21622 11.0927C6.12831 11.1806 6.00909 11.23 5.88477 11.23C5.76045 11.23 5.64122 11.1806 5.55331 11.0927C5.4654 11.0048 5.41602 10.8856 5.41602 10.7612V7.01123C5.41602 6.88691 5.4654 6.76768 5.55331 6.67977C5.64122 6.59187 5.76045 6.54248 5.88477 6.54248C6.00909 6.54248 6.12831 6.59187 6.21622 6.67977C6.30413 6.76768 6.35352 6.88691 6.35352 7.01123ZM9.16602 7.01123V10.7612C9.16602 10.8856 9.11663 11.0048 9.02872 11.0927C8.94081 11.1806 8.82159 11.23 8.69727 11.23C8.57295 11.23 8.45372 11.1806 8.36581 11.0927C8.2779 11.0048 8.22852 10.8856 8.22852 10.7612V7.01123C8.22852 6.88691 8.2779 6.76768 8.36581 6.67977C8.45372 6.59187 8.57295 6.54248 8.69727 6.54248C8.82159 6.54248 8.94081 6.59187 9.02872 6.67977C9.11663 6.76768 9.16602 6.88691 9.16602 7.01123Z" fill="#FF4D4F"/>
</svg>
